<?xml version="1.0" encoding="UTF-8" standalone="no"?>
<svg
   xmlns:dc="http://purl.org/dc/elements/1.1/"
   xmlns:cc="http://creativecommons.org/ns#"
   xmlns:rdf="http://www.w3.org/1999/02/22-rdf-syntax-ns#"
   xmlns:svg="http://www.w3.org/2000/svg"
   xmlns="http://www.w3.org/2000/svg"
   xmlns:sodipodi="http://sodipodi.sourceforge.net/DTD/sodipodi-0.dtd"
   xmlns:inkscape="http://www.inkscape.org/namespaces/inkscape"
   sodipodi:docname="dch-header.svg"
   inkscape:version="1.0beta2 (2b71d25, 2019-12-03)"
   id="svg389"
   version="1.1"
   viewBox="0 0 96.576523 9.3461418"
   height="9.3461418mm"
   width="96.576523mm">
  <defs
     id="defs383" />
  <sodipodi:namedview
     fit-margin-bottom="0"
     fit-margin-right="0"
     fit-margin-left="0"
     fit-margin-top="0"
     inkscape:window-maximized="0"
     inkscape:window-y="23"
     inkscape:window-x="1402"
     inkscape:window-height="849"
     inkscape:window-width="1524"
     showgrid="false"
     inkscape:document-rotation="0"
     inkscape:current-layer="layer1"
     inkscape:document-units="mm"
     inkscape:cy="61.063251"
     inkscape:cx="171.39207"
     inkscape:zoom="1.979899"
     inkscape:pageshadow="2"
     inkscape:pageopacity="0.0"
     borderopacity="1.0"
     bordercolor="#666666"
     pagecolor="#ffffff"
     id="base" />
  <metadata
     id="metadata386">
    <rdf:RDF>
      <cc:Work
         rdf:about="">
        <dc:format>image/svg+xml</dc:format>
        <dc:type
           rdf:resource="http://purl.org/dc/dcmitype/StillImage" />
        <dc:title></dc:title>
      </cc:Work>
    </rdf:RDF>
  </metadata>
  <g
     transform="translate(-70.262765,-118.81361)"
     id="layer1"
     inkscape:groupmode="layer"
     inkscape:label="Layer 1">
    <path
       sodipodi:nodetypes="csscssccsscssccsscssccccccccccccccccccccccsccscsccsc"
       style="fill:#5ea7ba;stroke:none;stroke-width:0.139279"
       d="m 80.566013,120.83996 c -0.67651,0.19206 -0.32125,1.16444 -0.32125,1.47608 v 4.29091 c 0,0.20522 -0.26211,1.68829 0.58856,1.54277 0.80522,-0.13779 0.45123,-1.14763 0.45123,-1.44949 v -4.47747 c 0,-0.17534 0.20989,-1.64638 -0.71854,-1.3828 m -4.15916,0.93281 c -0.581995,0.16523 -0.32126,0.84308 -0.32126,1.10296 v 3.26481 c 0,0.16735 -0.229479,1.21629 0.58857,1.07636 0.70381,-0.12037 0.45122,-0.81974 0.45122,-1.07636 v -3.3581 c 0,-0.14986 0.16173,-1.25959 -0.71853,-1.00967 m 6.23874,0 c -0.58199,0.16523 -0.32125,0.84308 -0.32125,1.10296 v 3.26481 c 0,0.16735 -0.22948,1.21629 0.58856,1.07636 0.70382,-0.12037 0.45123,-0.81974 0.45123,-1.07636 v -3.3581 c 0,-0.14986 0.16173,-1.25959 -0.71854,-1.00967 m -4.48041,4.55434 c 1.80212,-0.13489 1.03989,-2.05087 1.03979,-2.70514 -4e-5,-0.24263 0.16716,-0.66957 -0.20973,-0.87105 -0.74258,-0.39692 -0.82948,0.55791 -0.83006,0.68449 v 0.55969 0.9328 1.39921 m 6.35204,-3.62153 c -0.45373,0.12878 -0.32034,0.52946 -0.32126,0.72983 -0.003,0.74569 -0.0305,1.49314 8.6e-4,2.23864 0.006,0.14253 0.0509,0.73263 0.71758,0.54336 0.45373,-0.12878 0.32034,-0.52946 0.32125,-0.72982 0.003,-0.7457 0.0305,-1.49315 -8.5e-4,-2.23865 -0.006,-0.14252 -0.0509,-0.73263 -0.71758,-0.54336 m -10.189955,0.9328 c -0.700259,0.19879 -0.369501,1.86395 0.397283,1.64623 0.700258,-0.19879 0.3695,-1.86395 -0.397283,-1.64623 m -4.064503,0.72984 c 0.887275,0.99007 3.130395,-0.35138 0.657086,-0.13107 -0.232394,0.0206 -0.451832,0.0871 -0.657086,0.13107 m 16.220748,0 c 0.55649,0.62096 3.10523,0.37312 4.36712,0.37312 h 13.101367 47.41448 11.4377 c 0.83246,0 3.39055,0.18982 3.93332,-0.14543 0.8439,-0.52153 -3.82165,-0.41426 -4.34923,-0.41426 H 147.62323 104.36791 92.306343 c -1.82962,0 -4.14607,-0.17537 -5.82283,0.18657 z"
       id="path372"
       inkscape:connector-curvature="0" />
    <text
       transform="scale(1.05,0.95238097)"
       id="text408"
       y="129.29974"
       x="82.429253"
       style="font-style:normal;font-weight:normal;font-size:6.35px;line-height:1.25;font-family:sans-serif;fill:#5ea7ba;fill-opacity:1;stroke:none;stroke-width:0.165119"
       xml:space="preserve"><tspan
         style="font-style:normal;font-variant:normal;font-weight:normal;font-stretch:normal;font-family:'Arial Narrow';-inkscape-font-specification:'Arial Narrow';fill:#5ea7ba;fill-opacity:1;stroke-width:0.165119"
         y="129.29974"
         x="82.429253"
         id="tspan406"
         sodipodi:role="line">Dissector</tspan></text>
  </g>
</svg>
